<svg width="56" height="56" viewBox="0 0 56 56" fill="none" xmlns="http://www.w3.org/2000/svg">
<circle cx="28" cy="28" r="27.5" fill="white" stroke="#BCC4CC"/>
<g clip-path="url(#clip0_437_6343)">
<mask id="mask0_437_6343" style="mask-type:luminance" maskUnits="userSpaceOnUse" x="18" y="17" width="20" height="21">
<path d="M37.4118 25.468H28.0088V29.3127H33.4118C33.3249 29.8568 33.1299 30.3921 32.8443 30.8801C32.5171 31.4393 32.1125 31.8651 31.6979 32.1893C30.4559 33.1604 29.0078 33.359 28.0022 33.359C25.4618 33.359 23.2912 31.6836 22.4509 29.4071C22.417 29.3244 22.3945 29.2391 22.3671 29.1547C22.1814 28.5753 22.0799 27.9617 22.0799 27.3239C22.0799 26.6601 22.1898 26.0247 22.3901 25.4246C23.1803 23.0578 25.3998 21.29 28.004 21.29C28.5278 21.29 29.0323 21.3536 29.5106 21.4805C30.6038 21.7705 31.3771 22.3417 31.8509 22.7935L34.71 19.9364C32.9709 18.3092 30.7037 17.3232 27.9993 17.3232C25.8373 17.3232 23.8412 18.0106 22.2055 19.1722C20.879 20.1143 19.7911 21.3756 19.0569 22.8405C18.3739 24.1988 18 25.704 18 27.3224C18 28.9408 18.3745 30.4617 19.0574 31.8074V31.8164C19.7788 33.2451 20.8336 34.4752 22.1157 35.4129C23.2357 36.2322 25.244 37.3232 27.9993 37.3232C29.5838 37.3232 30.9881 37.0317 32.2265 36.4854C33.12 36.0913 33.9115 35.5773 34.6282 34.9167C35.5752 34.0438 36.3168 32.9642 36.823 31.722C37.3292 30.4798 37.6 29.0751 37.6 27.5521C37.6 26.8429 37.5302 26.1226 37.4118 25.4679V25.468Z" fill="white"/>
</mask>
<g mask="url(#mask0_437_6343)">
<g filter="url(#filter0_f_437_6343)">
<path d="M17.8557 27.3906C17.8661 28.9835 18.3109 30.627 18.9842 31.9538V31.9629C19.4707 32.9264 20.1356 33.6875 20.8929 34.4416L25.4669 32.7386C24.6015 32.2901 24.4695 32.0152 23.8491 31.5137C23.2152 30.8614 22.7428 30.1126 22.4485 29.2346H22.4367L22.4485 29.2255C22.255 28.6457 22.2359 28.0302 22.2287 27.3906H17.8557Z" fill="url(#paint0_radial_437_6343)"/>
</g>
<g filter="url(#filter1_f_437_6343)">
<path d="M28.0089 17.2505C27.5568 18.8711 27.7297 20.4465 28.0089 21.3631C28.531 21.3635 29.0339 21.427 29.5108 21.5535C30.604 21.8435 31.3772 22.4147 31.851 22.8665L34.7833 19.9364C33.0462 18.3112 30.9557 17.253 28.0089 17.2505Z" fill="url(#paint1_radial_437_6343)"/>
</g>
<g filter="url(#filter2_f_437_6343)">
<path d="M27.9987 17.2383C25.7812 17.2382 23.7339 17.9432 22.0562 19.1347C21.4333 19.5771 20.8616 20.0882 20.3526 20.6565C20.2193 21.933 21.3508 23.5021 23.5917 23.4891C24.679 22.1985 26.287 21.3635 28.0767 21.3635C28.0784 21.3635 28.08 21.3637 28.0816 21.3637L28.0085 17.2386C28.0052 17.2386 28.002 17.2383 27.9987 17.2383Z" fill="url(#paint2_radial_437_6343)"/>
</g>
<g filter="url(#filter3_f_437_6343)">
<path d="M35.318 27.8523L33.3387 29.2398C33.2519 29.7839 33.0567 30.3192 32.7711 30.8072C32.4439 31.3664 32.0394 31.7922 31.6248 32.1164C30.3853 33.0855 28.9411 33.2851 27.9357 33.2859C26.8965 35.0919 26.7144 35.9965 28.0088 37.4541C29.6105 37.4529 31.0305 37.1579 32.2831 36.6054C33.1885 36.206 33.9906 35.6851 34.7169 35.0156C35.6766 34.131 36.4283 33.0368 36.9413 31.778C37.4543 30.5191 37.7286 29.0956 37.7286 27.5522L35.318 27.8523Z" fill="url(#paint3_radial_437_6343)"/>
</g>
<g filter="url(#filter4_f_437_6343)">
<path d="M27.8621 25.3223V29.4591H37.3848C37.4686 28.8925 37.7456 28.1594 37.7456 27.5525C37.7456 26.8432 37.6758 25.9769 37.5574 25.3223H27.8621Z" fill="#3086FF"/>
</g>
<g filter="url(#filter5_f_437_6343)">
<path d="M20.3981 20.5098C19.8104 21.1659 19.3084 21.9002 18.9104 22.6944C18.2274 24.0527 17.8535 25.7039 17.8535 27.3223C17.8535 27.3451 17.8554 27.3674 17.8555 27.3902C18.158 27.9819 22.0332 27.8686 22.2285 27.3902C22.2283 27.3679 22.2258 27.3461 22.2258 27.3237C22.2258 26.66 22.3357 26.1707 22.536 25.5706C22.7832 24.8304 23.1701 24.1487 23.6649 23.5614C23.777 23.4153 24.0762 23.1012 24.1635 22.9128C24.1967 22.841 24.1031 22.8007 24.0979 22.7754C24.092 22.7472 23.9665 22.7699 23.9384 22.7489C23.8491 22.682 23.6723 22.6471 23.565 22.6161C23.3355 22.5498 22.9552 22.4036 22.744 22.2521C22.0763 21.773 21.0344 21.2008 20.3981 20.5098Z" fill="url(#paint4_radial_437_6343)"/>
</g>
<g filter="url(#filter6_f_437_6343)">
<path d="M22.7585 22.7784C24.3067 23.7354 24.752 22.2953 25.7813 21.8447L23.9907 18.0557C23.332 18.3382 22.7097 18.6891 22.1323 19.0992C21.27 19.7116 20.5085 20.459 19.8794 21.3095L22.7585 22.7784Z" fill="url(#paint5_radial_437_6343)"/>
</g>
<g filter="url(#filter7_f_437_6343)">
<path d="M23.3884 32.4453C21.3101 33.2109 20.9848 33.2383 20.7935 34.5526C21.159 34.9167 21.5518 35.2534 21.9692 35.5587C23.0892 36.3779 25.2437 37.469 27.999 37.469C28.0022 37.469 28.0053 37.4687 28.0085 37.4687V33.2125C28.0064 33.2125 28.004 33.2127 28.002 33.2127C26.9702 33.2127 26.1457 32.9361 25.3004 32.4553C25.0919 32.3367 24.7138 32.6551 24.5216 32.5127C24.2564 32.3164 23.6184 32.6819 23.3884 32.4453Z" fill="url(#paint6_radial_437_6343)"/>
</g>
<g opacity="0.5" filter="url(#filter8_f_437_6343)">
<path d="M26.7913 33.0796V37.3961C27.1768 37.4422 27.578 37.4702 27.9989 37.4702C28.4208 37.4702 28.829 37.448 29.2256 37.4074V33.1087C28.7811 33.1862 28.3625 33.2138 28.0019 33.2138C27.5865 33.2138 27.1826 33.1645 26.7913 33.0796Z" fill="url(#paint7_linear_437_6343)"/>
</g>
</g>
</g>
<defs>
<filter id="filter0_f_437_6343" x="17.8342" y="27.3691" width="7.65405" height="7.09375" filterUnits="userSpaceOnUse" color-interpolation-filters="sRGB">
<feFlood flood-opacity="0" result="BackgroundImageFix"/>
<feBlend mode="normal" in="SourceGraphic" in2="BackgroundImageFix" result="shape"/>
<feGaussianBlur stdDeviation="0.0107424" result="effect1_foregroundBlur_437_6343"/>
</filter>
<filter id="filter1_f_437_6343" x="27.7095" y="17.229" width="7.09522" height="5.65918" filterUnits="userSpaceOnUse" color-interpolation-filters="sRGB">
<feFlood flood-opacity="0" result="BackgroundImageFix"/>
<feBlend mode="normal" in="SourceGraphic" in2="BackgroundImageFix" result="shape"/>
<feGaussianBlur stdDeviation="0.0107424" result="effect1_foregroundBlur_437_6343"/>
</filter>
<filter id="filter2_f_437_6343" x="20.3206" y="17.2168" width="7.78247" height="6.29395" filterUnits="userSpaceOnUse" color-interpolation-filters="sRGB">
<feFlood flood-opacity="0" result="BackgroundImageFix"/>
<feBlend mode="normal" in="SourceGraphic" in2="BackgroundImageFix" result="shape"/>
<feGaussianBlur stdDeviation="0.0107424" result="effect1_foregroundBlur_437_6343"/>
</filter>
<filter id="filter3_f_437_6343" x="27.0752" y="27.5308" width="10.6748" height="9.94483" filterUnits="userSpaceOnUse" color-interpolation-filters="sRGB">
<feFlood flood-opacity="0" result="BackgroundImageFix"/>
<feBlend mode="normal" in="SourceGraphic" in2="BackgroundImageFix" result="shape"/>
<feGaussianBlur stdDeviation="0.0107424" result="effect1_foregroundBlur_437_6343"/>
</filter>
<filter id="filter4_f_437_6343" x="27.8406" y="25.3008" width="9.92651" height="4.17969" filterUnits="userSpaceOnUse" color-interpolation-filters="sRGB">
<feFlood flood-opacity="0" result="BackgroundImageFix"/>
<feBlend mode="normal" in="SourceGraphic" in2="BackgroundImageFix" result="shape"/>
<feGaussianBlur stdDeviation="0.0107424" result="effect1_foregroundBlur_437_6343"/>
</filter>
<filter id="filter5_f_437_6343" x="17.832" y="20.4883" width="6.36011" height="7.32568" filterUnits="userSpaceOnUse" color-interpolation-filters="sRGB">
<feFlood flood-opacity="0" result="BackgroundImageFix"/>
<feBlend mode="normal" in="SourceGraphic" in2="BackgroundImageFix" result="shape"/>
<feGaussianBlur stdDeviation="0.0107424" result="effect1_foregroundBlur_437_6343"/>
</filter>
<filter id="filter6_f_437_6343" x="19.7283" y="17.9046" width="6.20395" height="5.34653" filterUnits="userSpaceOnUse" color-interpolation-filters="sRGB">
<feFlood flood-opacity="0" result="BackgroundImageFix"/>
<feBlend mode="normal" in="SourceGraphic" in2="BackgroundImageFix" result="shape"/>
<feGaussianBlur stdDeviation="0.0755234" result="effect1_foregroundBlur_437_6343"/>
</filter>
<filter id="filter7_f_437_6343" x="20.772" y="32.4067" width="7.25806" height="5.08399" filterUnits="userSpaceOnUse" color-interpolation-filters="sRGB">
<feFlood flood-opacity="0" result="BackgroundImageFix"/>
<feBlend mode="normal" in="SourceGraphic" in2="BackgroundImageFix" result="shape"/>
<feGaussianBlur stdDeviation="0.0107424" result="effect1_foregroundBlur_437_6343"/>
</filter>
<filter id="filter8_f_437_6343" x="26.7698" y="33.0581" width="2.4773" height="4.43359" filterUnits="userSpaceOnUse" color-interpolation-filters="sRGB">
<feFlood flood-opacity="0" result="BackgroundImageFix"/>
<feBlend mode="normal" in="SourceGraphic" in2="BackgroundImageFix" result="shape"/>
<feGaussianBlur stdDeviation="0.0107424" result="effect1_foregroundBlur_437_6343"/>
</filter>
<radialGradient id="paint0_radial_437_6343" cx="0" cy="0" r="1" gradientTransform="matrix(-0.407289 -9.95993 14.6437 -0.597686 25.3753 34.2915)" gradientUnits="userSpaceOnUse">
<stop offset="0.141612" stop-color="#1ABD4D"/>
<stop offset="0.247515" stop-color="#6EC30D"/>
<stop offset="0.311547" stop-color="#8AC502"/>
<stop offset="0.366013" stop-color="#A2C600"/>
<stop offset="0.445673" stop-color="#C8C903"/>
<stop offset="0.540305" stop-color="#EBCB03"/>
<stop offset="0.615636" stop-color="#F7CD07"/>
<stop offset="0.699345" stop-color="#FDCD04"/>
<stop offset="0.771242" stop-color="#FDCE05"/>
<stop offset="0.860566" stop-color="#FFCE0A"/>
</radialGradient>
<radialGradient id="paint1_radial_437_6343" cx="0" cy="0" r="1" gradientTransform="matrix(6.9169 -1.69631e-05 -9.72198e-06 8.92438 34.509 22.6545)" gradientUnits="userSpaceOnUse">
<stop offset="0.408458" stop-color="#FB4E5A"/>
<stop offset="1" stop-color="#FF4540"/>
</radialGradient>
<radialGradient id="paint2_radial_437_6343" cx="0" cy="0" r="1" gradientTransform="matrix(-9.69107 5.36243 7.28365 13.1383 30.7312 15.9464)" gradientUnits="userSpaceOnUse">
<stop offset="0.231273" stop-color="#FF4541"/>
<stop offset="0.311547" stop-color="#FF4540"/>
<stop offset="0.457516" stop-color="#FF4640"/>
<stop offset="0.540305" stop-color="#FF473F"/>
<stop offset="0.699346" stop-color="#FF5138"/>
<stop offset="0.771242" stop-color="#FF5B33"/>
<stop offset="0.860566" stop-color="#FF6C29"/>
<stop offset="1" stop-color="#FF8C18"/>
</radialGradient>
<radialGradient id="paint3_radial_437_6343" cx="0" cy="0" r="1" gradientTransform="matrix(-17.575 -22.9206 -8.46854 6.48127 28.1529 36.1597)" gradientUnits="userSpaceOnUse">
<stop offset="0.131546" stop-color="#0CBA65"/>
<stop offset="0.209784" stop-color="#0BB86D"/>
<stop offset="0.297297" stop-color="#09B479"/>
<stop offset="0.396257" stop-color="#08AD93"/>
<stop offset="0.477124" stop-color="#0AA6A9"/>
<stop offset="0.568425" stop-color="#0D9CC6"/>
<stop offset="0.667385" stop-color="#1893DD"/>
<stop offset="0.768727" stop-color="#258BF1"/>
<stop offset="0.858506" stop-color="#3086FF"/>
</radialGradient>
<radialGradient id="paint4_radial_437_6343" cx="0" cy="0" r="1" gradientTransform="matrix(-1.24374 10.7101 14.8226 1.71807 27.1497 19.1265)" gradientUnits="userSpaceOnUse">
<stop offset="0.366013" stop-color="#FF4E3A"/>
<stop offset="0.457516" stop-color="#FF8A1B"/>
<stop offset="0.540305" stop-color="#FFA312"/>
<stop offset="0.615636" stop-color="#FFB60C"/>
<stop offset="0.771242" stop-color="#FFCD0A"/>
<stop offset="0.860566" stop-color="#FECF0A"/>
<stop offset="0.915033" stop-color="#FECF08"/>
<stop offset="1" stop-color="#FDCD01"/>
</radialGradient>
<radialGradient id="paint5_radial_437_6343" cx="0" cy="0" r="1" gradientTransform="matrix(-3.59507 3.97231 -11.2146 -10.1305 25.4008 19.0155)" gradientUnits="userSpaceOnUse">
<stop offset="0.315904" stop-color="#FF4C3C"/>
<stop offset="0.603818" stop-color="#FF692C"/>
<stop offset="0.726837" stop-color="#FF7825"/>
<stop offset="0.884534" stop-color="#FF8D1B"/>
<stop offset="1" stop-color="#FF9F13"/>
</radialGradient>
<radialGradient id="paint6_radial_437_6343" cx="0" cy="0" r="1" gradientTransform="matrix(-9.69107 -5.36243 7.28365 -13.1383 30.7312 38.7001)" gradientUnits="userSpaceOnUse">
<stop offset="0.231273" stop-color="#0FBC5F"/>
<stop offset="0.311547" stop-color="#0FBC5F"/>
<stop offset="0.366013" stop-color="#0FBC5E"/>
<stop offset="0.457516" stop-color="#0FBC5D"/>
<stop offset="0.540305" stop-color="#12BC58"/>
<stop offset="0.699346" stop-color="#28BF3C"/>
<stop offset="0.771242" stop-color="#38C02B"/>
<stop offset="0.860566" stop-color="#52C218"/>
<stop offset="0.915033" stop-color="#67C30F"/>
<stop offset="1" stop-color="#86C504"/>
</radialGradient>
<linearGradient id="paint7_linear_437_6343" x1="26.7913" y1="35.2749" x2="29.2256" y2="35.2749" gradientUnits="userSpaceOnUse">
<stop stop-color="#0FBC5C"/>
<stop offset="1" stop-color="#0CBA65"/>
</linearGradient>
<clipPath id="clip0_437_6343">
<rect width="19.6" height="20" fill="white" transform="translate(18 17.3242)"/>
</clipPath>
</defs>
</svg>
