<svg width="24" height="24" viewBox="0 0 24 24" fill="none" xmlns="http://www.w3.org/2000/svg">
<path d="M16.25 2.75C17.7103 2.75 19.1008 3.19565 20.1299 4.18945C21.1651 5.18932 21.75 6.66211 21.75 8.54688C21.75 10.9995 20.2301 13.4696 18.543 15.4844C16.83 17.5299 14.8178 19.254 13.5928 20.2295C12.6555 20.9757 11.3445 20.9757 10.4072 20.2295C9.18217 19.254 7.16996 17.5299 5.45703 15.4844C3.76992 13.4696 2.25 10.9995 2.25 8.54688C2.25006 5.38922 4.67062 2.75 7.75 2.75C9.47599 2.75 10.9979 3.58656 12 4.87207C13.0021 3.58656 14.524 2.75 16.25 2.75Z" fill="white"/>
</svg>
