<svg width="100" height="24" viewBox="0 0 100 24" fill="none" xmlns="http://www.w3.org/2000/svg">
<path d="M96.0385 23.2736C93.9573 23.2736 92.3364 22.7661 91.1758 21.7512C90.0151 20.7164 89.4348 19.1641 89.4348 17.0945V3.21387H95.138V17.0348C95.138 17.6119 95.298 18.0696 95.6182 18.4079C95.9384 18.7263 96.3486 18.8855 96.8489 18.8855C97.5293 18.8855 98.1096 18.7164 98.5899 18.378L100.001 22.3482C99.5204 22.6666 98.9301 22.8955 98.2297 23.0348C97.5293 23.194 96.7989 23.2736 96.0385 23.2736ZM87.0635 11.0348V6.82581H98.86V11.0348H87.0635Z" fill="#00B387"/>
<path d="M78.1636 0V16.1791H83.8667V0H78.1636ZM81.0151 17.9701C79.9746 17.9701 79.1341 18.2587 78.4937 18.8358C77.8534 19.4129 77.5332 20.1294 77.5332 20.9851C77.5332 21.8408 77.8534 22.5572 78.4937 23.1343C79.1341 23.7114 79.9746 24 81.0151 24C82.0557 24 82.8962 23.7214 83.5365 23.1642C84.1769 22.6269 84.4971 21.9303 84.4971 21.0746C84.4971 20.1791 84.1769 19.4328 83.5365 18.8358C82.9162 18.2587 82.0757 17.9701 81.0151 17.9701Z" fill="#00B387"/>
<path d="M57.9746 23.0049V2.10938H74.4538V6.67654H63.9179V23.0049H57.9746ZM63.4977 15.8407V11.2736H73.1931V15.8407H63.4977Z" fill="#00B387"/>
<path d="M42.564 23.2734C41.2433 23.2734 40.0526 23.0147 38.992 22.4973C37.9514 21.9799 37.131 21.1739 36.5306 20.0794C35.9503 18.965 35.6602 17.562 35.6602 15.8705V6.82568H41.3633V14.9451C41.3633 16.1988 41.5935 17.0943 42.0537 17.6317C42.534 18.169 43.2043 18.4376 44.0648 18.4376C44.6251 18.4376 45.1354 18.3083 45.5957 18.0496C46.0559 17.7909 46.4261 17.3829 46.7063 16.8257C46.9864 16.2486 47.1265 15.5123 47.1265 14.6167V6.82568H52.8297V23.0048H47.3967V18.4376L48.4473 19.7212C47.8869 20.9152 47.0765 21.8108 46.0159 22.4078C44.9553 22.9849 43.8047 23.2734 42.564 23.2734Z" fill="#00B387"/>
<path d="M25.1094 23.0047V0.855469H30.8125V23.0047H25.1094Z" fill="#00B387"/>
<path d="M11.5864 23.4227C9.92551 23.4227 8.38466 23.164 6.96387 22.6466C5.54308 22.1093 4.3124 21.3531 3.27182 20.378C2.25125 19.4029 1.45081 18.2586 0.870483 16.9451C0.290161 15.6118 0 14.1491 0 12.5571C0 10.965 0.290161 9.5123 0.870483 8.19887C1.45081 6.86554 2.26126 5.71131 3.30183 4.73618C4.34241 3.76106 5.5731 3.01479 6.99389 2.49738C8.43468 1.96006 10.0056 1.69141 11.7065 1.69141C13.6876 1.69141 15.4586 2.01976 17.0195 2.67648C18.5803 3.3332 19.871 4.27847 20.8916 5.5123L17.1095 8.91529C16.3891 8.13917 15.6087 7.56205 14.7682 7.18394C13.9477 6.78593 13.0272 6.58693 12.0067 6.58693C11.1062 6.58693 10.2857 6.72623 9.5453 7.00484C8.80489 7.28345 8.17454 7.69141 7.65425 8.22872C7.13396 8.74613 6.72374 9.373 6.42357 10.1093C6.14341 10.8257 6.00333 11.6417 6.00333 12.5571C6.00333 13.4327 6.14341 14.2387 6.42357 14.975C6.72374 15.7113 7.13396 16.3481 7.65425 16.8854C8.17454 17.4028 8.79489 17.8108 9.51529 18.1093C10.2557 18.3879 11.0661 18.5272 11.9466 18.5272C12.8271 18.5272 13.6876 18.3879 14.5281 18.1093C15.3685 17.8108 16.219 17.3133 17.0795 16.6168L20.4113 20.766C19.2107 21.6218 17.8199 22.2785 16.239 22.7362C14.6581 23.1939 13.1073 23.4227 11.5864 23.4227ZM20.4113 20.766L15.1584 19.9899V12.1093H20.4113V20.766Z" fill="#00B387"/>
</svg>
